{"title":"Projeto Thomaz Farkas 1 - Geraldo Sarno - DocumentÃƒÂ¡rios","uid":5556236,"size":1307414065,"categoryP":"video","categoryS":"movies","magnet":"?xt=urn:btih:6e4ae634065f53ab4fa90fab15fa6bd13563f4e5&amp;dn=Projeto+Thomaz+Farkas+1+-+Geraldo+Sarno+-+Document%C3%83%C2%A1rios&amp;tr=udp%3A%2F%2Ftracker.openbittorrent.com%3A80&amp;tr=udp%3A%2F%2Fopen.demonii.com%3A1337&amp;tr=udp%3A%2F%2Ftracker.coppersurfer.tk%3A6969&amp;tr=udp%3A%2F%2Fexodus.desync.com%3A6969","seeders":3,"leechers":0,"uploader":"mfccorrea","files":4,"time":1273692817,"description":"Project Thomaz Farkas \n\nProject Thomaz Farkas is a collection of 39 documentaries produced by Thomas Farkas  in the 1960s and 1970s, featuring various cultural events of Brazil linked to the specific reality of each region. The documentaries were organized in a box containing seven discs, and include a short interview with the participation of renowned photographer, producer and documentary filmmaker, exposing a broad universe of Brazilian culture.\n\nThe Disc 1 contains the following documetaries by Geraldo Sarno:\n\nEu Carrego um SertÃƒÂ£o Dentro de Mim (1980)\nViramundo (1965)\nViva Cariri (1970)\n\nAll films have Portuguese audio, and no subtitles. There's a 300 dpi scan of the DVD cover included.\n\n   General\n      Complete name : Projeto Thomaz Farkas - Geraldo Sarno - DocumentÃƒÂ¡rios.avi\n      Format : AVI\n      Format/Info : Audio Video Interleave\n      File size : 1.21 GiB\n      Duration : 1h 27mn\n      Overall bit rate : 1 978 Kbps\n      Writing application : VirtualDubMod 1.5.10.2 (build 2540/release)\n      Writing library : VirtualDubMod build 2540/release\n   Video #0\n\n      Format : MPEG-4 Visual\n      Format profile : AdvancedSimple@L5\n      Format settings, BVOP : Yes\n      Format settings, QPel : No\n      Format settings, GMC : No warppoints\n      Format settings, Matrix : Default (MPEG)\n      Muxing mode : Packed bitstream\n      Codec ID : XVID\n      Codec ID/Hint : XviD\n      Duration : 1h 27mn\n      Bit rate : 1 744 Kbps\n      Width : 640 pixels\n      Height : 464 pixels\n      Display aspect ratio : 1.379\n      Frame rate : 23.976 fps\n      Resolution : 24 bits\n      Colorimetry : 4:2:0\n      Scan type : Progressive\n      Bits/(Pixel*Frame) : 0.245\n      Stream size : 1.07 GiB (88%)\n      Writing library : XviD 1.2.0.dev47 (UTC 2006-11-01)\n   Audio #1\n      ID : 1\n      Format : AC-3\n      Format/Info : Audio Coding 3\n      Codec ID : 2000\n      Duration : 1h 27mn\n      Bit rate mode : Constant\n      Bit rate : 224 Kbps\n      Channel(s) : 2 channels\n      Channel positions : L R\n      Sampling rate : 48.0 KHz\n      Stream size : 141 MiB (11%)\n      Alignment : Split accross interleaves\n      Interleave, duration : 42 ms (1.00 video frame)\n      Interleave, preload duration : 500 ms\n &lt;a href=&quot;\nhttp://www.imdb.com/name/nm0765420/&quot; rel=&quot;nofollow&quot; target=&quot;_NEW&quot;&gt;\nhttp://www.imdb.com/name/nm0765420/&lt;/a&gt;","torrent":{"xt":"urn:btih:6e4ae634065f53ab4fa90fab15fa6bd13563f4e5","amp;dn":"Projeto+Thomaz+Farkas+1+-+Geraldo+Sarno+-+Document%C3%83%C2%A1rios","amp;tr":["udp%3A%2F%2Ftracker.openbittorrent.com%3A80","udp%3A%2F%2Fopen.demonii.com%3A1337","udp%3A%2F%2Ftracker.coppersurfer.tk%3A6969","udp%3A%2F%2Fexodus.desync.com%3A6969"],"infoHash":"6e4ae634065f53ab4fa90fab15fa6bd13563f4e5","infoHashBuffer":{"type":"Buffer","data":[110,74,230,52,6,95,83,171,79,169,15,171,21,250,107,209,53,99,244,229]},"announce":[],"urlList":[]}}